<svg width="30" height="30" viewBox="0 0 30 30" fill="none" xmlns="http://www.w3.org/2000/svg">
<path fill-rule="evenodd" clip-rule="evenodd" d="M27.5 7.14998L21.75 2.32498L20.1375 4.23748L25.8875 9.06248L27.5 7.14998ZM9.85 4.23748L8.25 2.32498L2.5 7.13748L4.1125 9.04998L9.85 4.23748ZM15 4.99999C8.7875 4.99999 3.75 10.0375 3.75 16.25C3.75 22.4625 8.775 27.5 15 27.5C21.2125 27.5 26.25 22.4625 26.25 16.25C26.25 10.0375 21.2125 4.99999 15 4.99999ZM15 25C10.1625 25 6.25 21.0875 6.25 16.25C6.25 11.4125 10.1625 7.5 15 7.5C19.8375 7.5 23.75 11.4125 23.75 16.25C23.75 21.0875 19.8375 25 15 25ZM13.1749 18.1625L10.5124 15.5L9.18744 16.825L13.1624 20.8L20.6624 13.3L19.3374 11.975L13.1749 18.1625Z" fill="black"/>
</svg>
